<?xml version="1.0" standalone="no"?>
<!DOCTYPE svg PUBLIC "-//W3C//DTD SVG 20010904//EN"
 "http://www.w3.org/TR/2001/REC-SVG-20010904/DTD/svg10.dtd">
<svg version="1.0" xmlns="http://www.w3.org/2000/svg"
 width="32.000000pt" height="32.000000pt" viewBox="0 0 32.000000 32.000000"
 preserveAspectRatio="xMidYMid meet">

<g transform="translate(0.000000,32.000000) scale(0.100000,-0.100000)"
fill="#000000" stroke="none">
<path d="M41 256 c-10 -12 -6 -15 19 -21 18 -4 52 -4 76 0 36 5 44 3 44 -9 0
-9 -3 -16 -7 -16 -5 0 -21 -20 -36 -45 -16 -24 -42 -56 -58 -69 -16 -14 -30
-29 -30 -33 -1 -15 38 -22 132 -22 71 -1 100 3 108 13 9 11 3 15 -33 20 -24 4
-56 4 -70 0 -57 -14 -58 1 -6 77 27 39 59 78 70 86 38 27 21 33 -89 33 -81 0
-111 -4 -120 -14z"/>
<path d="M259 160 l-54 -49 58 -1 57 0 0 50 c0 28 -1 50 -3 50 -2 0 -28 -22
-58 -50z"/>
<path d="M10 143 l0 -47 45 44 c25 24 45 45 45 47 0 2 -20 3 -45 3 l-45 0 0
-47z"/>
</g>
</svg>
